# xmcd
#
# Track frame offsets:
# 150
# 6492
# 22589
# 28917
# 47009
# 64113
# 86267
# 101862
# 120477
# 133048
# 153822
# 167694
# 188152
# 204938
#
# Disc length: 2925 seconds
#
#
# Revision: 2
# Processed by: cddbd v1.5.2PL0 Copyright (c) Steve Scherf et al.
# Submitted via: FreeRIP 2.944 
#
DISCID=aa0b6b0e
DTITLE=The Carpenters - Carpenters
DYEAR=1900
DGENRE=
TTITLE0=Aurora
TTITLE1=Desperado
TTITLE2=Eventide
TTITLE3=Goodbye and I love you
TTITLE4=Happy
TTITLE5=I can dream can't I
TTITLE6=Love me for what I am
TTITLE7=Only yestarday
TTITLE8=Please Mr. Postman
TTITLE9=Solitaire
TTITLE10=We've only just begun
TTITLE11=A song for you
TTITLE12=Superstar
TTITLE13=Sing
EXTD=Please Mr. Postman
EXTT0=
EXTT1=
EXTT2=
EXTT3=
EXTT4=
EXTT5=
EXTT6=
EXTT7=
EXTT8=
EXTT9=
EXTT10=
EXTT11=
EXTT12=
EXTT13=
PLAYORDER=
